<svg width="30" height="30" viewBox="0 0 30 30" fill="none" xmlns="http://www.w3.org/2000/svg">
<path fill-rule="evenodd" clip-rule="evenodd" d="M9.76119 18.1052L3.93672 15.5911C3.32503 15.3265 2.93619 14.7159 2.95592 14.0497C2.97681 13.3834 3.40048 12.7973 4.02726 12.5709C8.27896 11.0318 21.1385 6.37502 24.8644 5.02511C25.4285 4.82199 26.0588 4.94502 26.5045 5.34547C26.9502 5.74708 27.1382 6.36109 26.9955 6.94377C26.1667 10.2959 23.6039 20.6704 22.8216 23.8368C22.6858 24.3882 22.2714 24.8281 21.7305 24.9975C21.1884 25.1681 20.5976 25.0428 20.1716 24.6679L16.2194 21.1962L13.1261 24.1618C12.6815 24.5878 12.0362 24.7259 11.4558 24.5205C10.8766 24.3139 10.4634 23.7985 10.388 23.188L9.76119 18.1052ZM20.976 22.5948L24.7576 7.28618L5.84031 14.1367L10.8337 16.2933C11.363 16.522 11.7321 17.0141 11.8029 17.5864L12.3484 22.0133L14.6339 19.8231L14.4319 19.649C14.0825 19.3506 13.8771 18.9189 13.8643 18.4604C13.8504 18.0019 14.0326 17.5597 14.3634 17.2416C15.6042 16.0519 18.9146 12.8797 18.9146 12.8797C19.3313 12.4804 19.9929 12.4943 20.3922 12.911C20.7903 13.3265 20.7764 13.9881 20.3608 14.3874L16.1799 18.3954L16.8682 18.985L20.976 22.5948Z" fill="white"/>
</svg>
