<svg width="29" height="30" viewBox="0 0 29 30" fill="none" xmlns="http://www.w3.org/2000/svg">
<path d="M15.5434 14.0372L15.5434 2.23135C15.5436 1.69696 15.1101 1.26349 14.5757 1.26371C14.0411 1.26371 13.6081 1.69674 13.6081 2.23135L13.6081 14.0372L1.80219 14.0372C1.26758 14.0372 0.83455 14.4703 0.834555 15.0049C0.834332 15.5393 1.26781 15.9727 1.80219 15.9725L13.6081 15.9725L13.6081 27.7784C13.6079 28.3128 14.0413 28.7463 14.5757 28.7461C14.843 28.7461 15.0849 28.6378 15.26 28.4627C15.4351 28.2876 15.5434 28.0457 15.5434 27.7784L15.5434 15.9725L27.3493 15.9725C27.6166 15.9725 27.8585 15.8643 28.0336 15.6892C28.2086 15.5141 28.3169 15.2722 28.3169 15.0049C28.3171 14.4705 27.8837 14.037 27.3493 14.0372L15.5434 14.0372Z" fill="#33B7BC"/>
</svg>
